# xmcd CD database file
#
# Track frame offsets:
#	150
#	9685
#	23780
#	40052
#	54497
#	66690
#	74295
#	85110
#	96395
#	103640
#	113742
#	122942
#	135687
#	142862
#	150752
#	155482
#	158870
#	164427
#	177170
#	186190
#	198715
#	207260
#	220147
#	230347
#	240540
#	250307
#	256215
#	262142
#	271252
#	279307
#	286850
#	292107
#	301087
#	308725
#	318892
#	328030
#	334390
#
# Disc length: 4528 seconds
#
# Revision: 0
# Processed by: cddbd v1.5.1PL0 Copyright (c) Steve Scherf et al.
# Submitted via: CDex 1.51
#
DISCID=2111ae25
DTITLE=Sonoton Authentic Series - SAS 058 - Authentic Czech and Slovak Republics
DYEAR=1996
DGENRE=Contentum
TTITLE0=Bohemia - Böhmen - Chodska polka  (brass bands)
TTITLE1=Bohemia - Böhmen - Bohemian landler   (brass bands)
TTITLE2=Bohemia - Böhmen - Dancing the polka  (brass bands)
TTITLE3=Bohemia - Böhmen - The foot og the hill  (brass bands)
TTITLE4=Bohemia - Böhmen - Bohemian mountainside  (brass bands)
TTITLE5=Bohemia - Böhmen - Duo for flugelhorns  (brass bands)
TTITLE6=Bohemia - Böhmen - Galop  (brass bands)
TTITLE7=Bohemia - Böhmen - This is our polka  (Descriptive Folk Music)
TTITLE8=Bohemia - Böhmen - When I shoed my horses  (Descriptive Folk Music)
TTITLE9=Bohemia - Böhmen - Goose polka  (Descriptive Folk Music)
TTITLE10=Bohemia - Böhmen - Under your window  (Descriptive Folk Music)
TTITLE11=Bohemia - Böhmen - The dog in the kitchen  (Descriptive Folk Music)
TTITLE12=Bohemia - Böhmen - Playing the bagpipes  (Descriptive Folk Music)
TTITLE13=Bohemia - Böhmen - I don't want you  (Descriptive Folk Music)
TTITLE14=Bohemia - Böhmen - A castle in Nachod  (Descriptive Folk Music)
TTITLE15=Bohemia - Böhmen - Nobody knows  (Descriptive Folk Music)
TTITLE16=Bohemia - Böhmen - Clarinet serenade  (Descriptive Folk Music)
TTITLE17=Bohemia - Böhmen - Jump and dance  (Descriptive Folk Music)
TTITLE18=Bohemia - Böhmen - Pastoral serenade  (Descriptive Folk Music)
TTITLE19=Bohemia - Böhmen - Dance and jump 2  (Descriptive Folk Music)
TTITLE20=Moravia - Mähren - Moravian polka  (brass bands)
TTITLE21=Moravia - Mähren - Moravian sunset  (brass bands)
TTITLE22=Moravia - Mähren - Vineyards  (brass bands)
TTITLE23=Moravia - Mähren - Nice boys  (brass bands)
TTITLE24=Moravia - Mähren - The sun is slow  (Descriptive Folk Music)
TTITLE25=Moravia - Mähren - Fast dance  (Descriptive Folk Music)
TTITLE26=Moravia - Mähren - Running waters  (Descriptive Folk Music)
TTITLE27=Moravia - Mähren - Moravian pastoral  (Descriptive Folk Music)
TTITLE28=Moravia - Mähren - Moravian czardas  (Descriptive Folk Music)
TTITLE29=Moravia - Mähren - Dulcimer impression  (Descriptive Folk Music)
TTITLE30=Moravia - Mähren - Twinkling  (Descriptive Folk Music)
TTITLE31=Slovakia - Slowakei - Fujara variations  (Descriptive Folk Music)
TTITLE32=Slovakia - Slowakei - Gypsy love  (Descriptive Folk Music)
TTITLE33=Slovakia - Slowakei - Fujara medley  (Descriptive Folk Music)
TTITLE34=Slovakia - Slowakei - Mountain mood  (Descriptive Folk Music)
TTITLE35=Slovakia - Slowakei - Slovakian czardas  (Descriptive Folk Music)
TTITLE36=Slovakia - Slowakei - Violinissimo  (Descriptive Folk Music)
EXTD=YEAR: 1996
EXTT0=
EXTT1=
EXTT2=
EXTT3=
EXTT4=
EXTT5=
EXTT6=
EXTT7=
EXTT8=
EXTT9=
EXTT10=
EXTT11=
EXTT12=
EXTT13=
EXTT14=
EXTT15=
EXTT16=
EXTT17=
EXTT18=
EXTT19=
EXTT20=
EXTT21=
EXTT22=
EXTT23=
EXTT24=
EXTT25=
EXTT26=
EXTT27=
EXTT28=
EXTT29=
EXTT30=
EXTT31=
EXTT32=
EXTT33=
EXTT34=
EXTT35=
EXTT36=
PLAYORDER=
